<mxfile host="65bd71144e">
    <diagram name="Page-1" id="e7e014a7-5840-1c2e-5031-d8a46d1fe8dd">
        <mxGraphModel dx="832" dy="568" grid="1" gridSize="10" guides="1" tooltips="1" connect="1" arrows="1" fold="1" page="1" pageScale="1" pageWidth="1169" pageHeight="826" background="none" math="0" shadow="0">
            <root>
                <mxCell id="0"/>
                <mxCell id="1" parent="0"/>
                <mxCell id="2" value="User" style="swimlane;whiteSpace=wrap" parent="1" vertex="1">
                    <mxGeometry x="164.5" y="128" width="280" height="642" as="geometry"/>
                </mxCell>
                <mxCell id="5" value="" style="ellipse;shape=startState;fillColor=#000000;strokeColor=#FFFFFF;" parent="2" vertex="1">
                    <mxGeometry x="120" y="42" width="30" height="30" as="geometry"/>
                </mxCell>
                <mxCell id="7" value="Go to KTDI Minimarket&#10; System Homepage&#10;and click &#10;&quot;Order Details&quot;" style="strokeColor=#000000;" parent="2" vertex="1">
                    <mxGeometry x="60" y="110" width="150" height="80" as="geometry"/>
                </mxCell>
                <mxCell id="8" value="Click the&#10;&quot;Return/Refund&quot; button" style="" parent="2" vertex="1">
                    <mxGeometry x="60" y="220" width="150" height="50" as="geometry"/>
                </mxCell>
                <mxCell id="qjr2F4XpUvaXnPlqDPw9-71" value="" style="endArrow=open;endFill=1;endSize=12;html=1;rounded=0;exitX=0.5;exitY=1;exitDx=0;exitDy=0;" parent="2" source="5" target="7" edge="1">
                    <mxGeometry width="160" relative="1" as="geometry">
                        <mxPoint x="295.5" y="272" as="sourcePoint"/>
                        <mxPoint x="455.5" y="272" as="targetPoint"/>
                    </mxGeometry>
                </mxCell>
                <mxCell id="JSpwwFLCDADJo0zgjeLh-42" value="" style="endArrow=open;endFill=1;endSize=12;html=1;rounded=0;entryX=0.5;entryY=0;entryDx=0;entryDy=0;" parent="2" target="8" edge="1">
                    <mxGeometry width="160" relative="1" as="geometry">
                        <mxPoint x="135.5" y="190" as="sourcePoint"/>
                        <mxPoint x="295.5" y="190" as="targetPoint"/>
                    </mxGeometry>
                </mxCell>
                <mxCell id="3" value="System" style="swimlane;whiteSpace=wrap" parent="1" vertex="1">
                    <mxGeometry x="445" y="128" width="215" height="642" as="geometry"/>
                </mxCell>
                <mxCell id="16" value="Display lists of options&#10; of reason for refund&#10; of the product" style="" parent="3" vertex="1">
                    <mxGeometry x="35" y="200" width="129.5" height="90" as="geometry"/>
                </mxCell>
                <mxCell id="4" value="Administrator" style="swimlane;whiteSpace=wrap" parent="1" vertex="1">
                    <mxGeometry x="660" y="128" width="344.5" height="642" as="geometry"/>
                </mxCell>
                <mxCell id="qjr2F4XpUvaXnPlqDPw9-41" value="UC012_ActivityDiagram" style="shape=umlFrame;whiteSpace=wrap;html=1;pointerEvents=0;width=170;height=30;fillColor=none;" parent="1" vertex="1">
                    <mxGeometry x="120" y="80" width="920" height="730" as="geometry"/>
                </mxCell>
                <mxCell id="15" value="Make the decision&#10; to allow product&#10; to be refundable&#10; or vice versa" style="" parent="1" vertex="1">
                    <mxGeometry x="680" y="324" width="120" height="98" as="geometry"/>
                </mxCell>
                <mxCell id="qjr2F4XpUvaXnPlqDPw9-49" value="" style="endArrow=open;endFill=1;endSize=12;html=1;rounded=0;entryX=0;entryY=0.5;entryDx=0;entryDy=0;exitX=1;exitY=0.5;exitDx=0;exitDy=0;" parent="1" source="16" target="15" edge="1">
                    <mxGeometry width="160" relative="1" as="geometry">
                        <mxPoint x="460" y="400" as="sourcePoint"/>
                        <mxPoint x="620" y="400" as="targetPoint"/>
                    </mxGeometry>
                </mxCell>
                <mxCell id="21" value="Refundable product" style="rhombus;fillColor=default;strokeColor=#18141D;" parent="1" vertex="1">
                    <mxGeometry x="675" y="460" width="130" height="67" as="geometry"/>
                </mxCell>
                <mxCell id="33" value="Go back to the&#10;KTDI Minimarket&#10; System Homepage" style="" parent="1" vertex="1">
                    <mxGeometry x="220" y="540" width="160" height="60" as="geometry"/>
                </mxCell>
                <mxCell id="qjr2F4XpUvaXnPlqDPw9-50" value="Product is returned&#10; at the minimarket&#10; and the money &#10;is refunded" style="" parent="1" vertex="1">
                    <mxGeometry x="685.25" y="550" width="109.5" height="90" as="geometry"/>
                </mxCell>
                <mxCell id="qjr2F4XpUvaXnPlqDPw9-52" value="Product is unreturned&#10; at the minimarket&#10; as the product is&#10; non-refundable" style="" parent="1" vertex="1">
                    <mxGeometry x="850" y="450" width="130" height="90" as="geometry"/>
                </mxCell>
                <mxCell id="qjr2F4XpUvaXnPlqDPw9-58" value="Yes" style="text;html=1;align=center;verticalAlign=middle;resizable=0;points=[];autosize=1;strokeColor=none;fillColor=none;" parent="1" vertex="1">
                    <mxGeometry x="740" y="520" width="40" height="30" as="geometry"/>
                </mxCell>
                <mxCell id="qjr2F4XpUvaXnPlqDPw9-60" value="" style="html=1;points=[];perimeter=orthogonalPerimeter;outlineConnect=0;targetShapes=umlLifeline;portConstraint=eastwest;newEdgeStyle={&quot;edgeStyle&quot;:&quot;elbowEdgeStyle&quot;,&quot;elbow&quot;:&quot;vertical&quot;,&quot;curved&quot;:0,&quot;rounded&quot;:0};strokeColor=#000000;fillColor=#FFFFFF;direction=south;" parent="1" vertex="1">
                    <mxGeometry x="875" y="630" width="85" height="10" as="geometry"/>
                </mxCell>
                <mxCell id="qjr2F4XpUvaXnPlqDPw9-64" value="" style="endArrow=open;endFill=1;endSize=12;html=1;rounded=0;entryX=1;entryY=0.5;entryDx=0;entryDy=0;exitX=0;exitY=0.5;exitDx=0;exitDy=0;" parent="1" source="qjr2F4XpUvaXnPlqDPw9-50" target="qjr2F4XpUvaXnPlqDPw9-72" edge="1">
                    <mxGeometry width="160" relative="1" as="geometry">
                        <mxPoint x="680" y="595" as="sourcePoint"/>
                        <mxPoint x="620" y="500" as="targetPoint"/>
                        <Array as="points"/>
                    </mxGeometry>
                </mxCell>
                <mxCell id="qjr2F4XpUvaXnPlqDPw9-66" value="" style="endArrow=open;endFill=1;endSize=12;html=1;rounded=0;entryX=0;entryY=0.5;entryDx=0;entryDy=0;exitX=1;exitY=0.5;exitDx=0;exitDy=0;" parent="1" source="21" target="qjr2F4XpUvaXnPlqDPw9-52" edge="1">
                    <mxGeometry width="160" relative="1" as="geometry">
                        <mxPoint x="460" y="500" as="sourcePoint"/>
                        <mxPoint x="620" y="500" as="targetPoint"/>
                    </mxGeometry>
                </mxCell>
                <mxCell id="qjr2F4XpUvaXnPlqDPw9-67" value="" style="endArrow=open;endFill=1;endSize=12;html=1;rounded=0;entryX=0.5;entryY=0;entryDx=0;entryDy=0;exitX=0.5;exitY=1;exitDx=0;exitDy=0;" parent="1" source="21" target="qjr2F4XpUvaXnPlqDPw9-50" edge="1">
                    <mxGeometry width="160" relative="1" as="geometry">
                        <mxPoint x="460" y="500" as="sourcePoint"/>
                        <mxPoint x="620" y="500" as="targetPoint"/>
                    </mxGeometry>
                </mxCell>
                <mxCell id="qjr2F4XpUvaXnPlqDPw9-68" value="No" style="text;html=1;align=center;verticalAlign=middle;resizable=0;points=[];autosize=1;strokeColor=none;fillColor=none;" parent="1" vertex="1">
                    <mxGeometry x="800" y="460" width="40" height="30" as="geometry"/>
                </mxCell>
                <mxCell id="qjr2F4XpUvaXnPlqDPw9-69" value="" style="endArrow=open;endFill=1;endSize=12;html=1;rounded=0;" parent="1" source="qjr2F4XpUvaXnPlqDPw9-60" target="33" edge="1">
                    <mxGeometry width="160" relative="1" as="geometry">
                        <mxPoint x="460" y="500" as="sourcePoint"/>
                        <mxPoint x="620" y="500" as="targetPoint"/>
                        <Array as="points">
                            <mxPoint x="915" y="680"/>
                            <mxPoint x="480" y="680"/>
                            <mxPoint x="480" y="480"/>
                            <mxPoint x="300" y="480"/>
                        </Array>
                    </mxGeometry>
                </mxCell>
                <mxCell id="qjr2F4XpUvaXnPlqDPw9-70" value="" style="endArrow=open;endFill=1;endSize=12;html=1;rounded=0;exitX=1;exitY=0.5;exitDx=0;exitDy=0;entryX=0;entryY=0.5;entryDx=0;entryDy=0;" parent="1" source="8" target="16" edge="1">
                    <mxGeometry width="160" relative="1" as="geometry">
                        <mxPoint x="460" y="400" as="sourcePoint"/>
                        <mxPoint x="620" y="400" as="targetPoint"/>
                    </mxGeometry>
                </mxCell>
                <mxCell id="qjr2F4XpUvaXnPlqDPw9-72" value="Customer/User is &#10;refunded as &#10;the product is &#10;returned at the&#10; minimarket" style="" parent="1" vertex="1">
                    <mxGeometry x="528.75" y="550" width="102.5" height="90" as="geometry"/>
                </mxCell>
                <mxCell id="qjr2F4XpUvaXnPlqDPw9-73" value="" style="endArrow=open;endFill=1;endSize=12;html=1;rounded=0;exitX=0;exitY=0.5;exitDx=0;exitDy=0;" parent="1" source="qjr2F4XpUvaXnPlqDPw9-72" target="qjr2F4XpUvaXnPlqDPw9-60" edge="1">
                    <mxGeometry width="160" relative="1" as="geometry">
                        <mxPoint x="460" y="500" as="sourcePoint"/>
                        <mxPoint x="620" y="500" as="targetPoint"/>
                        <Array as="points">
                            <mxPoint x="500" y="595"/>
                            <mxPoint x="500" y="660"/>
                            <mxPoint x="820" y="660"/>
                            <mxPoint x="820" y="600"/>
                            <mxPoint x="890" y="600"/>
                        </Array>
                    </mxGeometry>
                </mxCell>
                <mxCell id="qjr2F4XpUvaXnPlqDPw9-74" value="" style="endArrow=open;endFill=1;endSize=12;html=1;rounded=0;exitX=0.75;exitY=1;exitDx=0;exitDy=0;" parent="1" source="qjr2F4XpUvaXnPlqDPw9-52" target="qjr2F4XpUvaXnPlqDPw9-60" edge="1">
                    <mxGeometry width="160" relative="1" as="geometry">
                        <mxPoint x="460" y="500" as="sourcePoint"/>
                        <mxPoint x="620" y="500" as="targetPoint"/>
                    </mxGeometry>
                </mxCell>
                <mxCell id="JSpwwFLCDADJo0zgjeLh-39" value="" style="endArrow=open;endFill=1;endSize=12;html=1;rounded=0;entryX=0.5;entryY=0;entryDx=0;entryDy=0;" parent="1" edge="1">
                    <mxGeometry width="160" relative="1" as="geometry">
                        <mxPoint x="300" y="600" as="sourcePoint"/>
                        <mxPoint x="300" y="640" as="targetPoint"/>
                    </mxGeometry>
                </mxCell>
                <mxCell id="JSpwwFLCDADJo0zgjeLh-43" value="" style="ellipse;html=1;shape=endState;fillColor=#000000;strokeColor=#000000;" parent="1" vertex="1">
                    <mxGeometry x="285" y="640" width="30" height="30" as="geometry"/>
                </mxCell>
                <mxCell id="34" value="" style="endArrow=open;startArrow=none;endFill=0;startFill=0;endSize=8;html=1;verticalAlign=bottom;labelBackgroundColor=none;strokeWidth=1;entryX=0.5;entryY=0;entryDx=0;entryDy=0;exitX=0.5;exitY=1;exitDx=0;exitDy=0;" edge="1" parent="1" source="15" target="21">
                    <mxGeometry width="160" relative="1" as="geometry">
                        <mxPoint x="350" y="290" as="sourcePoint"/>
                        <mxPoint x="510" y="290" as="targetPoint"/>
                    </mxGeometry>
                </mxCell>
            </root>
        </mxGraphModel>
    </diagram>
</mxfile>